<svg xmlns="http://www.w3.org/2000/svg" viewBox="0 0 500 500" version="1.1">
    <path
        d="M 239 51.091 C 217.746 55.212, 195.337 80.006, 180.940 115.334 C 178.575 121.137, 178.544 121.165, 175.031 120.588 C 173.089 120.269, 162.725 119.727, 152 119.385 C 135.936 118.871, 130.914 119.060, 123.500 120.458 C 93.398 126.132, 76.179 143.807, 75.662 169.561 C 75.500 177.607, 75.493 177.629, 71.592 181.054 C 62.983 188.612, 60.379 202.348, 65.578 212.780 C 70.298 222.252, 78.230 226.943, 89.588 226.978 L 96.676 227 102.705 234.778 L 108.734 242.556 105.788 246.028 C 100.246 252.559, 88.083 271.540, 84.579 279.123 C 72.778 304.664, 72.705 326.870, 84.370 342.716 C 98.944 362.513, 129.789 370.091, 173.020 364.493 L 178.540 363.779 180.929 369.639 C 195.142 404.512, 215.803 427.807, 237.542 433.469 C 251.856 437.197, 266.496 433.580, 279.869 423.010 C 285.094 418.879, 285.142 418.865, 290.093 419.927 C 299.030 421.843, 309.076 418.234, 315.415 410.828 C 319.031 406.604, 322 399.016, 322 394 C 322 389.592, 319.097 381.269, 316.471 378.148 L 313.991 375.201 316.176 369.493 L 318.360 363.785 322.430 364.374 C 362.093 370.113, 391.441 364.512, 408.080 348.028 C 429.922 326.389, 425.055 290.599, 394.857 250.777 C 391.636 246.529, 389 242.807, 389 242.505 C 389 242.204, 391.192 239.154, 393.872 235.729 C 396.552 232.303, 400.350 226.976, 402.312 223.892 L 405.880 218.283 412.219 217.775 C 419.672 217.176, 425.084 214.636, 430.201 209.335 C 435.227 204.128, 437 199.405, 437 191.228 C 437 181.892, 433.741 175.349, 426.383 169.914 C 422.091 166.743, 421 165.367, 421 163.125 C 421 161.578, 420.087 157.655, 418.971 154.407 C 413.377 138.119, 400.611 127.599, 379.500 121.878 C 372.741 120.046, 368.630 119.694, 353 119.605 C 342.825 119.547, 330.831 119.880, 326.348 120.345 C 318.333 121.177, 318.183 121.151, 317.487 118.845 C 315.702 112.933, 309.296 99.575, 303.671 90.034 C 295.956 76.948, 280.856 61.117, 271.419 56.219 C 260.497 50.550, 250.196 48.921, 239 51.091 M 239 63.878 C 222.467 69.302, 206.528 87.894, 194.685 115.567 L 191.232 123.635 204.866 127.474 C 217.088 130.915, 235.493 137.267, 245 141.324 C 248.277 142.722, 248.882 142.661, 254.500 140.356 C 265.042 136.030, 280.139 130.949, 292.915 127.426 C 299.744 125.543, 305.466 123.867, 305.632 123.701 C 306.269 123.065, 296.748 103.130, 292.236 95.651 C 283.219 80.708, 274.476 71.824, 263 65.946 C 259.560 64.185, 256.498 63.573, 250 63.350 C 245.325 63.189, 240.375 63.427, 239 63.878 M 130.500 132.139 C 115.385 134.053, 103.666 139.241, 96.529 147.178 C 91.615 152.644, 89.182 158.702, 88.326 167.601 L 87.739 173.703 92.077 174.396 C 112.524 177.666, 122.575 199.862, 110.905 215.973 C 109.307 218.178, 108 220.246, 108 220.567 C 108 220.889, 109.996 223.746, 112.436 226.916 L 116.871 232.681 127.686 222.244 C 133.634 216.503, 142.721 208.363, 147.881 204.153 C 153.040 199.944, 158.324 195.600, 159.622 194.500 C 161.563 192.856, 162.245 190.721, 163.459 182.500 C 165.463 168.923, 168.488 154.376, 171.631 143.206 C 173.069 138.095, 174.078 133.749, 173.873 133.550 C 173.103 132.802, 151.376 131.005, 144.576 131.126 C 140.684 131.196, 134.350 131.652, 130.500 132.139 M 332.530 132.118 C 327.597 132.662, 323.413 133.254, 323.232 133.435 C 323.051 133.616, 324.017 137.754, 325.379 142.632 C 328.480 153.739, 332.435 172.810, 333.995 184.175 L 335.185 192.851 341.343 197.612 C 349.831 204.175, 360.846 213.848, 371.359 223.970 L 380.218 232.500 383.272 228.765 C 384.952 226.710, 388.225 222.235, 390.546 218.820 L 394.765 212.612 391.721 209.567 C 384.001 201.848, 382.213 188.892, 387.520 179.141 C 391.247 172.293, 396.034 168.348, 403.208 166.213 C 409.743 164.268, 409.832 163.782, 405.385 154.358 C 400.746 144.527, 389.098 136.664, 374.412 133.451 C 365.601 131.523, 344.134 130.840, 332.530 132.118 M 185.603 140.750 C 182.679 149.663, 175.540 182, 176.496 182 C 176.611 182, 183.039 178.042, 190.782 173.205 C 198.525 168.368, 210.959 161.281, 218.413 157.455 C 225.868 153.630, 231.975 150.229, 231.984 149.898 C 232.016 148.710, 191.686 136.017, 187.830 136.003 C 187.462 136.001, 186.460 138.137, 185.603 140.750 M 297.229 138.946 C 285.174 142.264, 265 149.174, 265 149.985 C 265 150.295, 269.387 152.719, 274.750 155.372 C 285.435 160.659, 305.171 172.065, 314.327 178.246 C 317.532 180.409, 320.332 182.002, 320.548 181.785 C 321.149 181.185, 315.364 153.562, 312.741 144.507 C 311.298 139.524, 309.875 136.439, 308.963 136.316 C 308.158 136.207, 302.878 137.391, 297.229 138.946 M 231 164.848 C 213.851 173.475, 199.715 181.757, 184.315 192.199 L 174.131 199.105 173.315 204.802 C 172.247 212.269, 172.260 272.815, 173.331 280.324 L 174.162 286.147 188.331 295.478 C 204.647 306.223, 225.260 317.947, 239.088 324.346 L 248.675 328.784 260.588 323.069 C 276.660 315.357, 293.710 305.568, 309.663 294.891 C 321.815 286.758, 322.970 285.719, 323.702 282.264 C 324.755 277.299, 324.735 209.876, 323.679 203.683 L 322.857 198.866 308.679 189.527 C 286.432 174.874, 253.126 156.955, 248.266 157.026 C 247.295 157.040, 239.525 160.560, 231 164.848 M 406.643 177.983 C 394.416 181.839, 393.663 198.867, 405.487 204.097 C 414.761 208.200, 424.993 201.592, 424.993 191.500 C 424.993 181.971, 415.700 175.126, 406.643 177.983 M 81.346 189.054 C 73.153 194.303, 73.224 207.169, 81.476 212.576 C 85.306 215.086, 91.186 215.480, 95.345 213.507 C 104.924 208.961, 105.725 194.462, 96.701 188.960 C 92.455 186.370, 85.469 186.413, 81.346 189.054 M 233.762 196.942 C 219.272 201.574, 206.851 214.319, 202.585 228.932 C 200.545 235.923, 200.551 249.110, 202.598 256.068 C 206.969 270.924, 220.100 284.056, 234.932 288.407 C 241.843 290.434, 255.098 290.457, 261.844 288.454 C 282.262 282.390, 296.249 263.622, 296.166 242.400 C 296.084 221.404, 282.665 203.043, 262.909 196.895 C 254.914 194.406, 241.627 194.428, 233.762 196.942 M 238.880 208.316 C 227.805 211.454, 217.604 221.676, 214.339 232.906 C 209.677 248.943, 218.366 267.489, 234 274.871 C 238.651 277.068, 240.889 277.469, 248.500 277.469 C 256.065 277.469, 258.377 277.059, 263.002 274.903 C 270.014 271.634, 277.080 264.574, 280.682 257.239 C 283.154 252.205, 283.495 250.395, 283.459 242.500 C 283.424 234.764, 283.029 232.697, 280.652 227.783 C 277.042 220.322, 270.297 213.483, 263.460 210.353 C 256.792 207.300, 245.706 206.381, 238.880 208.316 M 149.500 218.921 C 144 223.795, 136.223 231.120, 132.217 235.198 L 124.935 242.613 136.217 253.560 C 142.423 259.581, 150.200 266.816, 153.500 269.636 L 159.500 274.765 159.500 242.382 C 159.500 224.572, 159.500 210.013, 159.500 210.029 C 159.500 210.045, 155 214.047, 149.500 218.921 M 337.500 242.474 L 337.500 274.715 346 267.415 C 350.675 263.399, 358.452 256.128, 363.282 251.255 L 372.063 242.397 359.782 230.433 C 353.027 223.853, 345.250 216.616, 342.500 214.351 L 337.500 210.233 337.500 242.474 M 113.514 256.456 C 102.866 269.577, 93.086 288.301, 89.879 301.710 C 82.335 333.252, 100.416 351.824, 140.500 353.706 C 150.209 354.162, 172.586 352.737, 173.742 351.589 C 173.876 351.457, 172.211 344.294, 170.043 335.672 C 167.876 327.050, 165.115 313.738, 163.909 306.088 L 161.715 292.180 150.608 283.188 C 144.498 278.242, 134.392 269.295, 128.148 263.304 L 116.796 252.413 113.514 256.456 M 368.096 264.148 C 361.294 270.656, 351.128 279.630, 345.505 284.090 L 335.282 292.200 333.060 306.350 C 331.838 314.132, 329.073 327.436, 326.916 335.913 C 324.759 344.391, 323.107 351.440, 323.247 351.578 C 324.412 352.735, 346.744 354.164, 356.500 353.706 C 402.078 351.566, 419.181 327.524, 402.918 288.458 C 399.353 279.894, 392.212 267.833, 385.302 258.705 L 380.464 252.314 368.096 264.148 M 177.588 310.472 C 180.314 326.147, 186.390 349.003, 187.830 348.997 C 191.728 348.983, 232 336.291, 232 335.077 C 232 334.733, 227.613 332.281, 222.250 329.628 C 211.629 324.373, 191.846 312.946, 182.805 306.844 C 179.673 304.730, 176.925 303, 176.699 303 C 176.473 303, 176.873 306.362, 177.588 310.472 M 314.500 306.619 C 307.260 311.700, 290.315 321.705, 276.585 329.006 L 264.670 335.342 274.085 338.756 C 287.454 343.604, 309.035 349.369, 310.021 348.356 C 311.639 346.693, 321 308.553, 321 303.624 C 321 302.427, 319.466 303.134, 314.500 306.619 M 242.473 344.661 C 229.700 349.912, 212.195 355.590, 195.299 359.963 L 191.098 361.051 194.617 369.275 C 214.619 416.014, 243.139 433.476, 269.589 415.178 L 274.679 411.658 271.652 405.789 C 266.036 394.900, 268.224 382.547, 277.207 374.432 C 283.080 369.126, 287.283 367.624, 296.079 367.690 C 303.632 367.746, 303.661 367.736, 304.811 364.689 C 305.446 363.008, 305.861 361.539, 305.733 361.426 C 305.605 361.313, 301.088 360.025, 295.695 358.564 C 285.959 355.926, 263.104 348.180, 253.473 344.254 L 248.446 342.205 242.473 344.661 M 287.500 381.988 C 281.271 386.087, 279.231 394.586, 282.995 400.759 C 286.099 405.851, 290.601 408.189, 296.346 407.693 C 309.381 406.569, 313.789 388.720, 302.701 381.960 C 298.474 379.382, 291.440 379.395, 287.500 381.988"
        stroke="none"
        fill="#fccc07"
        fill-rule="evenodd"
    />
</svg>
